<svg width="253" height="97" viewBox="0 0 253 97" fill="none" xmlns="http://www.w3.org/2000/svg">
<rect x="1.5" y="1.5" width="250" height="94" rx="47" fill="white"/>
<rect x="1.5" y="1.5" width="250" height="94" rx="47" stroke="url(#paint0_linear_29_560)" stroke-width="3"/>
<path d="M39.1403 60H33.8676L41.9017 36.7273H48.2426L56.2653 60H50.9926L45.1631 42.0455H44.9812L39.1403 60ZM38.8108 50.8523H51.2653V54.6932H38.8108V50.8523ZM62.1756 60V42.5455H66.8688V45.5909H67.0506C67.3688 44.5076 67.9028 43.6894 68.6528 43.1364C69.4028 42.5758 70.2665 42.2955 71.2438 42.2955C71.4862 42.2955 71.7475 42.3106 72.0278 42.3409C72.3081 42.3712 72.5544 42.4129 72.7665 42.4659V46.7614C72.5392 46.6932 72.2248 46.6326 71.8233 46.5795C71.4218 46.5265 71.0544 46.5 70.721 46.5C70.0089 46.5 69.3725 46.6553 68.8119 46.9659C68.2589 47.2689 67.8195 47.6932 67.4938 48.2386C67.1756 48.7841 67.0165 49.4129 67.0165 50.125V60H62.1756ZM88.6284 42.5455V46.1818H78.117V42.5455H88.6284ZM80.5034 38.3636H85.3443V54.6364C85.3443 55.0833 85.4125 55.4318 85.5489 55.6818C85.6852 55.9242 85.8746 56.0947 86.117 56.1932C86.367 56.2917 86.6549 56.3409 86.9807 56.3409C87.208 56.3409 87.4352 56.322 87.6625 56.2841C87.8898 56.2386 88.064 56.2045 88.1852 56.1818L88.9466 59.7841C88.7042 59.8598 88.3633 59.947 87.9239 60.0455C87.4845 60.1515 86.9504 60.2159 86.3216 60.2386C85.1549 60.2841 84.1322 60.1288 83.2534 59.7727C82.3822 59.4167 81.7042 58.8636 81.2193 58.1136C80.7345 57.3636 80.4958 56.4167 80.5034 55.2727V38.3636ZM105.679 36.7273H111.747L118.156 52.3636H118.429L124.838 36.7273H130.906V60H126.134V44.8523H125.94L119.918 59.8864H116.668L110.645 44.7955H110.452V60H105.679V36.7273ZM143.047 60.3295C141.933 60.3295 140.941 60.1364 140.069 59.75C139.198 59.3561 138.509 58.7765 138.001 58.0114C137.501 57.2386 137.251 56.2765 137.251 55.125C137.251 54.1553 137.429 53.3409 137.785 52.6818C138.141 52.0227 138.626 51.4924 139.24 51.0909C139.853 50.6894 140.55 50.3864 141.331 50.1818C142.119 49.9773 142.944 49.8333 143.808 49.75C144.823 49.6439 145.641 49.5455 146.262 49.4545C146.884 49.3561 147.334 49.2121 147.615 49.0227C147.895 48.8333 148.035 48.553 148.035 48.1818V48.1136C148.035 47.3939 147.808 46.8371 147.353 46.4432C146.906 46.0492 146.27 45.8523 145.444 45.8523C144.573 45.8523 143.88 46.0455 143.365 46.4318C142.85 46.8106 142.509 47.2879 142.342 47.8636L137.865 47.5C138.092 46.4394 138.539 45.5227 139.206 44.75C139.872 43.9697 140.732 43.3712 141.785 42.9545C142.846 42.5303 144.073 42.3182 145.467 42.3182C146.437 42.3182 147.365 42.4318 148.251 42.6591C149.145 42.8864 149.937 43.2386 150.626 43.7159C151.323 44.1932 151.872 44.8068 152.274 45.5568C152.675 46.2992 152.876 47.1894 152.876 48.2273V60H148.285V57.5795H148.149C147.869 58.125 147.494 58.6061 147.024 59.0227C146.554 59.4318 145.99 59.7538 145.331 59.9886C144.672 60.2159 143.91 60.3295 143.047 60.3295ZM144.433 56.9886C145.145 56.9886 145.774 56.8485 146.319 56.5682C146.865 56.2803 147.293 55.8939 147.603 55.4091C147.914 54.9242 148.069 54.375 148.069 53.7614V51.9091C147.918 52.0076 147.709 52.0985 147.444 52.1818C147.187 52.2576 146.895 52.3295 146.569 52.3977C146.244 52.4583 145.918 52.5152 145.592 52.5682C145.266 52.6136 144.971 52.6553 144.706 52.6932C144.137 52.7765 143.641 52.9091 143.217 53.0909C142.793 53.2727 142.463 53.5189 142.228 53.8295C141.994 54.1326 141.876 54.5114 141.876 54.9659C141.876 55.625 142.115 56.1288 142.592 56.4773C143.077 56.8182 143.691 56.9886 144.433 56.9886ZM159.832 60V42.5455H164.525V45.5909H164.707C165.025 44.5076 165.559 43.6894 166.309 43.1364C167.059 42.5758 167.923 42.2955 168.9 42.2955C169.142 42.2955 169.404 42.3106 169.684 42.3409C169.964 42.3712 170.211 42.4129 170.423 42.4659V46.7614C170.195 46.6932 169.881 46.6326 169.48 46.5795C169.078 46.5265 168.711 46.5 168.377 46.5C167.665 46.5 167.029 46.6553 166.468 46.9659C165.915 47.2689 165.476 47.6932 165.15 48.2386C164.832 48.7841 164.673 49.4129 164.673 50.125V60H159.832ZM180.512 54.9773L180.523 49.1705H181.228L186.819 42.5455H192.376L184.864 51.3182H183.716L180.512 54.9773ZM176.126 60V36.7273H180.966V60H176.126ZM187.035 60L181.898 52.3977L185.126 48.9773L192.705 60H187.035ZM205.186 60.3409C203.391 60.3409 201.845 59.9773 200.55 59.25C199.262 58.5152 198.27 57.4773 197.573 56.1364C196.876 54.7879 196.527 53.1932 196.527 51.3523C196.527 49.5568 196.876 47.9811 197.573 46.625C198.27 45.2689 199.251 44.2121 200.516 43.4545C201.789 42.697 203.281 42.3182 204.993 42.3182C206.145 42.3182 207.217 42.5038 208.209 42.875C209.209 43.2386 210.08 43.7879 210.823 44.5227C211.573 45.2576 212.156 46.1818 212.573 47.2955C212.989 48.4015 213.198 49.697 213.198 51.1818V52.5114H198.459V49.5114H208.641C208.641 48.8144 208.489 48.197 208.186 47.6591C207.883 47.1212 207.463 46.7008 206.925 46.3977C206.395 46.0871 205.777 45.9318 205.073 45.9318C204.338 45.9318 203.686 46.1023 203.118 46.4432C202.558 46.7765 202.118 47.2273 201.8 47.7955C201.482 48.3561 201.319 48.9811 201.311 49.6705V52.5227C201.311 53.3864 201.47 54.1326 201.789 54.7614C202.114 55.3902 202.573 55.875 203.164 56.2159C203.755 56.5568 204.455 56.7273 205.266 56.7273C205.804 56.7273 206.296 56.6515 206.743 56.5C207.19 56.3485 207.573 56.1212 207.891 55.8182C208.209 55.5152 208.452 55.1439 208.618 54.7045L213.095 55C212.868 56.0758 212.402 57.0152 211.698 57.8182C211.001 58.6136 210.099 59.2348 208.993 59.6818C207.895 60.1212 206.626 60.3409 205.186 60.3409ZM228.841 42.5455V46.1818H218.33V42.5455H228.841ZM220.716 38.3636H225.557V54.6364C225.557 55.0833 225.625 55.4318 225.761 55.6818C225.898 55.9242 226.087 56.0947 226.33 56.1932C226.58 56.2917 226.867 56.3409 227.193 56.3409C227.42 56.3409 227.648 56.322 227.875 56.2841C228.102 56.2386 228.277 56.2045 228.398 56.1818L229.159 59.7841C228.917 59.8598 228.576 59.947 228.136 60.0455C227.697 60.1515 227.163 60.2159 226.534 60.2386C225.367 60.2841 224.345 60.1288 223.466 59.7727C222.595 59.4167 221.917 58.8636 221.432 58.1136C220.947 57.3636 220.708 56.4167 220.716 55.2727V38.3636Z" fill="black"/>
<defs>
<linearGradient id="paint0_linear_29_560" x1="16.0271" y1="22.5" x2="212.498" y2="101.697" gradientUnits="userSpaceOnUse">
<stop offset="0.235" stop-color="#D42C2C" stop-opacity="0.7"/>
<stop offset="1" stop-color="#C46767" stop-opacity="0.7"/>
</linearGradient>
</defs>
</svg>
